<svg width="160" height="160" viewBox="0 0 160 160" fill="none" xmlns="http://www.w3.org/2000/svg">
<rect width="160" height="160" rx="10" fill="#1B1E23"/>
<path d="M51.6875 117V44.2727H83.0795C88.4773 44.2727 93.2003 45.2552 97.2486 47.2202C101.297 49.1851 104.446 52.0142 106.695 55.7074C108.944 59.4006 110.068 63.8276 110.068 68.9886C110.068 74.197 108.908 78.5885 106.588 82.1634C104.292 85.7382 101.06 88.437 96.8935 90.2599C92.7505 92.0829 87.9091 92.9943 82.3693 92.9943H63.6193V77.6534H78.392C80.7121 77.6534 82.6889 77.3693 84.3224 76.8011C85.9796 76.2093 87.2462 75.2741 88.1222 73.9957C89.0218 72.7173 89.4716 71.0483 89.4716 68.9886C89.4716 66.9053 89.0218 65.2126 88.1222 63.9105C87.2462 62.5848 85.9796 61.6141 84.3224 60.9986C82.6889 60.3594 80.7121 60.0398 78.392 60.0398H71.4318V117H51.6875ZM94.3011 83.6193L112.483 117H91.0341L73.2784 83.6193H94.3011Z" fill="white"/>
</svg>
