<svg width="160" height="160" viewBox="0 0 160 160" fill="none" xmlns="http://www.w3.org/2000/svg">
<rect width="160" height="160" rx="10" fill="#1B1E23"/>
<path d="M53.321 117V44.2727H82.0142C87.5066 44.2727 92.1941 45.2552 96.0767 47.2202C99.983 49.1615 102.954 51.9195 104.99 55.4943C107.05 59.0455 108.08 63.224 108.08 68.0298C108.08 72.8594 107.038 77.0142 104.955 80.4943C102.871 83.9508 99.8527 86.6023 95.8991 88.4489C91.9692 90.2955 87.2107 91.2188 81.6236 91.2188H62.4119V78.8608H79.1378C82.0734 78.8608 84.5118 78.4583 86.4531 77.6534C88.3944 76.8485 89.8385 75.6411 90.7855 74.0312C91.7562 72.4214 92.2415 70.4209 92.2415 68.0298C92.2415 65.6151 91.7562 63.5791 90.7855 61.9219C89.8385 60.2647 88.3826 59.0099 86.4176 58.1577C84.4763 57.2817 82.026 56.8438 79.0668 56.8438H68.6974V117H53.321ZM92.5966 83.9034L110.672 117H93.6974L76.0128 83.9034H92.5966Z" fill="white"/>
</svg>
